<?xml version="1.0" standalone="no"?>
<!DOCTYPE svg PUBLIC "-//W3C//DTD SVG 20010904//EN"
 "http://www.w3.org/TR/2001/REC-SVG-20010904/DTD/svg10.dtd">
<svg version="1.0" xmlns="http://www.w3.org/2000/svg"
 width="1024.000000pt" height="32.000000pt" viewBox="0 0 1024.000000 32.000000"
 preserveAspectRatio="xMidYMid meet">

<g transform="translate(0.000000,32.000000) scale(0.100000,-0.100000)"
fill="#000000" stroke="none">
<path d="M148 184 c-4 -34 4 -50 20 -40 10 6 3 76 -8 76 -4 0 -10 -16 -12 -36z"/>
<path d="M90 120 c0 -18 7 -20 70 -20 63 0 70 2 70 20 0 11 -4 20 -10 20 -5 0
-10 -7 -10 -15 0 -11 -12 -15 -50 -15 -38 0 -50 4 -50 15 0 8 -4 15 -10 15 -5
0 -10 -9 -10 -20z"/>
</g>
</svg>
